<?xml version="1.0" encoding="utf-8"?>
<!-- Generator: Adobe Adobe Illustrator 29.0.0, SVG Export Plug-In . SVG Version: 6.00 Build 0)  -->
<svg version="1.1" xmlns="http://www.w3.org/2000/svg" xmlns:xlink="http://www.w3.org/1999/xlink" x="0px" y="0px"
	 viewBox="0 0 500 500" style="enable-background:new 0 0 500 500;" xml:space="preserve">
<style type="text/css">
	.st0{clip-path:url(#SVGID_00000116954951073748171490000009973880464426244286_);fill:#1C2826;}
	.st1{clip-path:url(#SVGID_00000116954951073748171490000009973880464426244286_);fill:none;stroke:#1C2826;stroke-width:8.6644;}
	.st2{display:none;}
	.st3{display:inline;}
	.st4{clip-path:url(#SVGID_00000179608090166257221230000012862544411106643337_);fill:#1C2826;}
	.st5{clip-path:url(#SVGID_00000179608090166257221230000012862544411106643337_);fill:none;stroke:#1C2826;stroke-width:12.4692;}
	.st6{clip-path:url(#SVGID_00000136403072029026292640000016207578493286936203_);fill:#D7D1C4;}
	.st7{clip-path:url(#SVGID_00000136403072029026292640000016207578493286936203_);fill:none;stroke:#D7D1C4;stroke-width:12.4692;}
	.st8{clip-path:url(#SVGID_00000172408958937416570940000005235429494720683393_);fill:#FFFFFF;}
	.st9{clip-path:url(#SVGID_00000172408958937416570940000005235429494720683393_);fill:none;stroke:#FFFFFF;stroke-width:12.4692;}
</style>
<g id="green">
	<g id="Logo">
		<defs>
			<rect id="SVGID_1_" x="-784.85" y="58.48" width="2069.7" height="883.05"/>
		</defs>
		<clipPath id="SVGID_00000082352171273450765540000013243707714190018211_">
			<use xlink:href="#SVGID_1_"  style="overflow:visible;"/>
		</clipPath>
		<path style="clip-path:url(#SVGID_00000082352171273450765540000013243707714190018211_);fill:#1C2826;" d="M251.74,404.43
			c3.16-3.19,7.43-7.47,11.66-11.79c60.51-61.88,121-123.77,181.55-185.61c2.43-2.48,3.47-4.48,1.95-8.11
			c-13.76-32.84-27.37-65.73-40.8-98.69c-1.71-4.18-4-5.26-8.3-5.26c-98.35,0.13-196.68,0.14-295.03-0.01
			c-4.69-0.01-6.84,1.42-8.58,5.71c-13.07,32.06-26.28,64.06-39.76,95.94c-2.04,4.84-1.66,7.74,2.14,11.62
			c50.07,50.99,99.82,102.3,149.95,153.24C220.93,376.11,236.3,389.81,251.74,404.43 M250.33,58.48c53.89,0,107.79,0,161.67,0
			c12.63,0,17.64,3.26,22.45,14.83c17.29,41.68,34.43,83.42,51.86,125.05c4.32,10.32,0.93,17.78-6.36,25.2
			C425.5,279.05,371.2,334.72,316.87,390.33c-17.12,17.51-34.2,35.05-51.3,52.57c-10.33,10.59-20.43,10.48-30.87-0.18
			C163.68,369.98,92.65,297.28,21.61,224.58C10.3,213,9.62,209.55,15.9,194.39c16.6-40.06,33.18-80.13,49.77-120.19
			c5.3-12.8,9.69-15.72,23.58-15.72C142.95,58.48,196.64,58.48,250.33,58.48"/>
		
			<path style="clip-path:url(#SVGID_00000082352171273450765540000013243707714190018211_);fill:none;stroke:#1C2826;stroke-width:8.6644;" d="
			M254.03,405.19c-15.49-14.66-30.9-28.38-45.33-43.05c-50.24-51.05-100.1-102.48-150.29-153.58c-3.81-3.89-4.19-6.79-2.13-11.65
			c13.5-31.96,26.75-64.03,39.83-96.16c1.75-4.29,3.91-5.73,8.61-5.72c98.56,0.16,197.11,0.14,295.67,0.01
			c4.33,0,6.62,1.09,8.32,5.27c13.47,33.03,27.11,65.99,40.91,98.9c1.52,3.64,0.48,5.64-1.95,8.13
			c-60.69,61.98-121.31,124-181.95,186.02C261.48,397.71,257.2,402,254.03,405.19z"/>
		<path style="clip-path:url(#SVGID_00000082352171273450765540000013243707714190018211_);fill:#1C2826;" d="M342.72,325.36v-71.91
			c0-52.08-29.99-69.45-62.73-69.45c-22.1,0-40.65,7.89-60.77,20.91V90.49h-10.65l-46.66-9.98l0.1,238.87l57.21,65.84V250.3
			c15.39-9.08,31.97-15,43.41-15c14.21,0,22.89,7.09,22.89,27.22l-0.13,122.69L342.72,325.36z"/>
	</g>
</g>
<g id="dark-green" class="st2">
	<g id="Logo_00000080886825010996106250000011280500430706472868_" class="st3">
		<defs>
			
				<rect id="SVGID_00000151542415096673512220000014919499419533910454_" x="-1243.32" y="-32.84" width="2978.58" height="1270.82"/>
		</defs>
		<clipPath id="SVGID_00000098933984277972510430000003481728714577288631_">
			<use xlink:href="#SVGID_00000151542415096673512220000014919499419533910454_"  style="overflow:visible;"/>
		</clipPath>
		<path style="clip-path:url(#SVGID_00000098933984277972510430000003481728714577288631_);fill:#1C2826;" d="M251.76,466.13
			c4.56-4.6,10.72-10.77,16.82-17.01c87.27-89.25,174.52-178.51,261.85-267.71c3.5-3.58,5.01-6.46,2.81-11.7
			c-19.85-47.36-39.47-94.8-58.85-142.34c-2.47-6.03-5.76-7.59-11.98-7.59c-141.85,0.19-283.68,0.21-425.52-0.02
			c-6.76-0.02-9.87,2.05-12.37,8.23C5.66,74.25-13.4,120.4-32.83,166.39c-2.94,6.99-2.39,11.17,3.09,16.76
			c72.22,73.54,143.98,147.55,216.27,221.02C207.32,425.29,229.49,445.04,251.76,466.13 M249.73-32.84c77.72,0,155.46,0,233.18,0
			c18.21,0,25.44,4.71,32.37,21.39c24.93,60.11,49.66,120.32,74.8,180.36c6.23,14.88,1.34,25.65-9.17,36.35
			C502.37,285.3,424.06,365.59,345.7,445.79c-24.69,25.25-49.32,50.55-73.99,75.82c-14.9,15.27-29.47,15.12-44.52-0.26
			C124.76,416.45,22.31,311.59-80.16,206.73c-16.31-16.7-17.29-21.68-8.23-43.54C-64.45,105.41-40.54,47.62-16.6-10.16
			c7.65-18.46,13.97-22.67,34.01-22.67C94.85-32.84,172.29-32.84,249.73-32.84"/>
		
			<path style="clip-path:url(#SVGID_00000098933984277972510430000003481728714577288631_);fill:none;stroke:#1C2826;stroke-width:12.4692;" d="
			M251.77,466.13c-22.3-21.09-44.46-40.85-65.24-61.96C114.24,330.71,42.49,256.7-29.76,183.15c-5.48-5.59-6.03-9.77-3.07-16.76
			C-13.39,120.4,5.67,74.25,24.5,28.01c2.52-6.18,5.63-8.25,12.39-8.23c141.85,0.23,283.68,0.21,425.5,0.02
			c6.23,0,9.53,1.56,11.98,7.59c19.38,47.53,39.02,94.97,58.87,142.34c2.18,5.24,0.7,8.12-2.81,11.69
			c-87.35,89.19-174.58,178.46-261.85,267.71C262.49,455.36,256.33,461.54,251.77,466.13z"/>
		<path style="clip-path:url(#SVGID_00000098933984277972510430000003481728714577288631_);fill:#1C2826;" d="M379.4,351.24V247.75
			c0-74.95-43.16-99.94-90.28-99.94c-31.81,0-58.49,11.36-87.46,30.09V13.23h-15.33L119.17-1.14l0.15,343.77l82.34,94.75V243.22
			c22.15-13.07,46.01-21.58,62.47-21.58c20.45,0,32.94,10.21,32.94,39.17l-0.19,176.57L379.4,351.24z"/>
	</g>
</g>
<g id="beige" class="st2">
	<g id="Logo_00000104676292800627563410000010100829736550671772_" class="st3">
		<defs>
			
				<rect id="SVGID_00000162341881708363834990000005615439960317260679_" x="-1243.32" y="-32.84" width="2978.58" height="1270.82"/>
		</defs>
		<clipPath id="SVGID_00000083054190742177225550000000477315955646270638_">
			<use xlink:href="#SVGID_00000162341881708363834990000005615439960317260679_"  style="overflow:visible;"/>
		</clipPath>
		<path style="clip-path:url(#SVGID_00000083054190742177225550000000477315955646270638_);fill:#D7D1C4;" d="M251.76,466.13
			c4.56-4.6,10.72-10.77,16.82-17.01c87.27-89.25,174.52-178.51,261.85-267.71c3.5-3.58,5.01-6.46,2.81-11.7
			c-19.85-47.36-39.47-94.8-58.85-142.34c-2.47-6.03-5.76-7.59-11.98-7.59c-141.85,0.19-283.68,0.21-425.52-0.02
			c-6.76-0.02-9.87,2.05-12.37,8.23C5.66,74.25-13.4,120.4-32.83,166.39c-2.94,6.99-2.39,11.17,3.09,16.76
			c72.22,73.54,143.98,147.55,216.27,221.02C207.32,425.29,229.49,445.04,251.76,466.13 M249.73-32.84c77.72,0,155.46,0,233.18,0
			c18.21,0,25.44,4.71,32.37,21.39c24.93,60.11,49.66,120.32,74.8,180.36c6.23,14.88,1.34,25.65-9.17,36.35
			C502.37,285.3,424.06,365.59,345.7,445.79c-24.69,25.25-49.32,50.55-73.99,75.82c-14.9,15.27-29.47,15.12-44.52-0.26
			C124.76,416.45,22.31,311.59-80.16,206.73c-16.31-16.7-17.29-21.68-8.23-43.54C-64.45,105.41-40.54,47.62-16.6-10.16
			c7.65-18.46,13.97-22.67,34.01-22.67C94.85-32.84,172.29-32.84,249.73-32.84"/>
		
			<path style="clip-path:url(#SVGID_00000083054190742177225550000000477315955646270638_);fill:none;stroke:#D7D1C4;stroke-width:12.4692;" d="
			M251.77,466.13c-22.3-21.09-44.46-40.85-65.24-61.96C114.24,330.71,42.49,256.7-29.76,183.15c-5.48-5.59-6.03-9.77-3.07-16.76
			C-13.39,120.4,5.67,74.25,24.5,28.01c2.52-6.18,5.63-8.25,12.39-8.23c141.85,0.23,283.68,0.21,425.5,0.02
			c6.23,0,9.53,1.56,11.98,7.59c19.38,47.53,39.02,94.97,58.87,142.34c2.18,5.24,0.7,8.12-2.81,11.69
			c-87.35,89.19-174.58,178.46-261.85,267.71C262.49,455.36,256.33,461.54,251.77,466.13z"/>
		<path style="clip-path:url(#SVGID_00000083054190742177225550000000477315955646270638_);fill:#D7D1C4;" d="M379.4,351.24V247.75
			c0-74.95-43.16-99.94-90.28-99.94c-31.81,0-58.49,11.36-87.46,30.09V13.23h-15.33L119.17-1.14l0.15,343.77l82.34,94.75V243.22
			c22.15-13.07,46.01-21.58,62.47-21.58c20.45,0,32.94,10.21,32.94,39.17l-0.19,176.57L379.4,351.24z"/>
	</g>
</g>
<g id="white" class="st2">
	<g id="Logo_00000122692852154089798800000015664513021078405027_" class="st3">
		<defs>
			
				<rect id="SVGID_00000106125643423170652500000016530049129824150657_" x="-1243.32" y="-32.84" width="2978.58" height="1270.82"/>
		</defs>
		<clipPath id="SVGID_00000141420931009790581360000006982314898531685549_">
			<use xlink:href="#SVGID_00000106125643423170652500000016530049129824150657_"  style="overflow:visible;"/>
		</clipPath>
		<path style="clip-path:url(#SVGID_00000141420931009790581360000006982314898531685549_);fill:#FFFFFF;" d="M251.76,466.13
			c4.56-4.6,10.72-10.77,16.82-17.01c87.27-89.25,174.52-178.51,261.85-267.71c3.5-3.58,5.01-6.46,2.81-11.7
			c-19.85-47.36-39.47-94.8-58.85-142.34c-2.47-6.03-5.76-7.59-11.98-7.59c-141.85,0.19-283.68,0.21-425.52-0.02
			c-6.76-0.02-9.87,2.05-12.37,8.23C5.66,74.25-13.4,120.4-32.83,166.39c-2.94,6.99-2.39,11.17,3.09,16.76
			c72.22,73.54,143.98,147.55,216.27,221.02C207.32,425.29,229.49,445.04,251.76,466.13 M249.73-32.84c77.72,0,155.46,0,233.18,0
			c18.21,0,25.44,4.71,32.37,21.39c24.93,60.11,49.66,120.32,74.8,180.36c6.23,14.88,1.34,25.65-9.17,36.35
			C502.37,285.3,424.06,365.59,345.7,445.79c-24.69,25.25-49.32,50.55-73.99,75.82c-14.9,15.27-29.47,15.12-44.52-0.26
			C124.76,416.45,22.31,311.59-80.16,206.73c-16.31-16.7-17.29-21.68-8.23-43.54C-64.45,105.41-40.54,47.62-16.6-10.16
			c7.65-18.46,13.97-22.67,34.01-22.67C94.85-32.84,172.29-32.84,249.73-32.84"/>
		
			<path style="clip-path:url(#SVGID_00000141420931009790581360000006982314898531685549_);fill:none;stroke:#FFFFFF;stroke-width:12.4692;" d="
			M251.77,466.13c-22.3-21.09-44.46-40.85-65.24-61.96C114.24,330.71,42.49,256.7-29.76,183.15c-5.48-5.59-6.03-9.77-3.07-16.76
			C-13.39,120.4,5.67,74.25,24.5,28.01c2.52-6.18,5.63-8.25,12.39-8.23c141.85,0.23,283.68,0.21,425.5,0.02
			c6.23,0,9.53,1.56,11.98,7.59c19.38,47.53,39.02,94.97,58.87,142.34c2.18,5.24,0.7,8.12-2.81,11.69
			c-87.35,89.19-174.58,178.46-261.85,267.71C262.49,455.36,256.33,461.54,251.77,466.13z"/>
		<path style="clip-path:url(#SVGID_00000141420931009790581360000006982314898531685549_);fill:#FFFFFF;" d="M379.4,351.24V247.75
			c0-74.95-43.16-99.94-90.28-99.94c-31.81,0-58.49,11.36-87.46,30.09V13.23h-15.33L119.17-1.14l0.15,343.77l82.34,94.75V243.22
			c22.15-13.07,46.01-21.58,62.47-21.58c20.45,0,32.94,10.21,32.94,39.17l-0.19,176.57L379.4,351.24z"/>
	</g>
</g>
</svg>
